<?xml version="1.0" standalone="no"?>
<!DOCTYPE svg PUBLIC "-//W3C//DTD SVG 20010904//EN"
 "http://www.w3.org/TR/2001/REC-SVG-20010904/DTD/svg10.dtd">
<svg version="1.0" xmlns="http://www.w3.org/2000/svg"
 width="456.000000pt" height="292.000000pt" viewBox="0 0 456.000000 292.000000"
 preserveAspectRatio="xMidYMid meet">

<g transform="translate(0.000000,292.000000) scale(0.100000,-0.100000)"
fill="#000000" stroke="none">
<path d="M1850 2411 c-373 -81 -655 -351 -756 -726 -29 -108 -27 -351 4 -460
27 -93 86 -223 133 -292 90 -132 227 -256 362 -328 l74 -39 49 15 49 15 -71
38 c-201 105 -362 307 -426 531 -18 65 -22 105 -22 215 0 157 20 251 85 389
l39 84 60 -7 c76 -9 185 -46 269 -92 36 -20 67 -38 68 -39 2 -1 -7 -39 -18
-86 -42 -166 -8 -363 90 -510 57 -87 101 -131 196 -193 39 -26 107 -71 153
-101 45 -30 130 -78 190 -106 l107 -51 -44 -19 c-189 -83 -418 -127 -845 -163
-92 -8 -170 -17 -173 -20 -13 -13 117 -21 342 -21 261 1 327 8 505 56 376 103
657 372 756 725 25 90 30 308 9 419 -68 366 -345 653 -724 752 -132 34 -338
41 -461 14z m532 -100 c42 -11 92 -28 110 -37 l33 -18 -85 -12 c-163 -24 -279
-76 -411 -183 -73 -58 -148 -145 -180 -207 -11 -21 -14 -20 -112 39 -56 34
-137 73 -180 88 l-79 27 39 43 c116 129 346 251 528 279 87 13 248 4 337 -19z
m347 -246 c61 -31 100 -78 151 -180 37 -76 87 -232 77 -241 -2 -2 -33 3 -68
12 -113 29 -242 5 -386 -71 -46 -24 -83 -40 -83 -35 0 13 126 115 178 143 52
28 210 77 249 77 22 0 24 3 19 25 -15 60 -63 141 -128 215 -37 44 -66 80 -63
80 3 0 28 -11 54 -25z m189 -518 c68 -28 75 -57 47 -208 -30 -160 -71 -260
-156 -384 -71 -102 -99 -132 -110 -114 -5 8 -9 18 -9 23 0 14 -77 161 -118
225 -19 31 -68 97 -107 146 -39 50 -74 95 -78 102 -18 29 44 98 134 150 39 22
177 69 224 77 43 6 142 -3 173 -17z"/>
<path d="M400 1440 l0 -350 70 0 70 0 0 133 c0 118 2 136 19 151 18 16 23 11
127 -134 l108 -150 83 0 c46 0 83 2 83 5 0 3 -60 85 -133 183 -73 97 -137 183
-141 190 -5 9 24 47 88 116 53 57 117 127 142 155 l46 51 -89 0 -89 0 -119
-137 -120 -136 -3 136 -3 137 -69 0 -70 0 0 -350z"/>
<path d="M3220 1441 l0 -351 138 0 c168 0 229 15 283 69 36 36 59 91 59 141
-1 41 -36 106 -71 130 -19 13 -36 25 -38 27 -3 2 7 16 22 31 34 36 47 72 47
134 0 64 -25 106 -82 138 -40 23 -55 25 -200 28 l-158 4 0 -351z m263 208 c30
-16 37 -28 37 -66 0 -52 -29 -73 -100 -73 l-60 0 0 75 0 75 51 0 c28 0 60 -5
72 -11z m36 -294 c32 -16 47 -56 31 -85 -20 -37 -52 -50 -122 -50 l-68 0 0 75
0 75 65 0 c38 0 78 -6 94 -15z"/>
<path d="M3683 1773 c8 -30 298 -687 306 -696 4 -4 76 151 161 345 84 194 155
357 157 361 3 4 -32 7 -78 5 l-82 -3 -72 -187 c-39 -103 -73 -189 -76 -192 -2
-2 -39 83 -83 190 l-79 194 -79 0 c-72 0 -80 -2 -75 -17z"/>
</g>
</svg>
